<?xml version="1.0" encoding="UTF-8" standalone="no"?><!DOCTYPE svg PUBLIC "-//W3C//DTD SVG 1.1//EN" "http://www.w3.org/Graphics/SVG/1.1/DTD/svg11.dtd"><svg width="100%" height="100%" viewBox="0 0 1334 1334" version="1.1" xmlns="http://www.w3.org/2000/svg" xmlns:xlink="http://www.w3.org/1999/xlink" xml:space="preserve" xmlns:serif="http://www.serif.com/" style="fill-rule:evenodd;clip-rule:evenodd;stroke-miterlimit:1.5;"><rect id="Artboard1" x="0" y="0" width="1333.33" height="1333.33" style="fill:none;"/><rect x="0" y="0" width="1333.33" height="1333.33" style="fill:none;"/><path d="M614.372,350.983l161.775,334.838l-218.961,-42.89l161.775,334.838" style="fill:none;stroke:#000;stroke-width:66.67px;"/><path d="M208.333,958.333l458.334,237.086l458.333,-237.086l0,-583.333l-458.333,-241.667l-458.334,241.667l0,583.333Zm66.667,-40.572l0,-502.546c0,-0 391.667,-206.515 391.667,-206.515c-0,-0 391.666,206.515 391.666,206.515c0,-0 0,502.546 0,502.546c0,-0 -391.666,202.6 -391.666,202.6l-391.667,-202.6Z"/></svg>